<svg xmlns="http://www.w3.org/2000/svg" viewBox="0 0 19 19"><style>*{fill:#fff;}</style><path d="M5.236 4.592a4.269 4.269 0 0 1 8.528 0c.273.076.526.202.748.367l.942-.673 1.188-2.673a.28.28 0 0 1 .369-.142l1.823.81a.28.28 0 0 1 .142.369L17.72 5.476c-.141.316-.364.59-.646.791L15.43 7.441v1.058h2.991a.28.28 0 0 1 .28.279v1.995a.28.28 0 0 1-.28.28H15.43v1.116l1.428 1.19c.206.171.374.383.493.623l1.6 3.199a.28.28 0 0 1-.125.376l-1.784.891a.28.28 0 0 1-.375-.125l-1.543-3.084-.192-.161a5.6 5.6 0 0 1-5.1 3.286h-.33a5.93 5.93 0 0 1-5.344-3.361l-.282.236-1.543 3.084a.28.28 0 0 1-.375.125l-1.784-.891a.283.283 0 0 1-.125-.376l1.599-3.199c.12-.24.288-.452.494-.623l1.428-1.19v-1.116H.579a.28.28 0 0 1-.28-.28V8.778a.28.28 0 0 1 .28-.279H3.57V7.441L1.926 6.267a1.95 1.95 0 0 1-.646-.791L.024 2.65a.28.28 0 0 1 .142-.369l1.822-.81a.28.28 0 0 1 .37.142l1.188 2.673.942.673a2.3 2.3 0 0 1 .748-.367M9.832 15.81a3.043 3.043 0 0 0 3.044-3.043V7.064H6.124l.042 5.879s.013.087.001.006a3.374 3.374 0 0 0 3.335 2.861zM9.5 3.076c-.852 0-1.558.621-1.692 1.434h3.384A1.716 1.716 0 0 0 9.5 3.076"/><path d="M9.5 8.682v4.766"/><path d="M8.833 8.682a.667.667 0 0 1 1.334 0v4.766a.667.667 0 0 1-1.334 0z"/></svg>