<svg xmlns="http://www.w3.org/2000/svg" viewBox="0 0 19 19"><style>*{fill:#1B7E1B;}</style><path d="M3.156 19H0V0h4.641c4.652 0 6.323.799 7.323 2.345.549.849.571 1.827.571 2.888 0 1.133-.379 2.118-1.138 2.951-.758.834-1.322 1.342-2.911 1.686l7.051 6.883c1.345 1.022 2.43 1.211 3.463 1.319V19h-4.944l-8.918-8.694c-.475.018-.861.027-1.159.027-.12 0-.251-.002-.391-.008-.139-.004-.284-.01-.432-.019V19Zm0-10.203h1.072c1.806 0 2.976-.025 3.893-.787.916-.761 1.274-1.623 1.274-2.6 0-1.151-.37-2.087-1.111-2.808-.74-.721-1.718-1.081-2.937-1.081-.54 0-1.27.086-2.191.258v7.018Z"/><path d="m4.899 19 9.2-9.552h3.621L8.52 19H4.899Z"/></svg>