<svg xmlns="http://www.w3.org/2000/svg" viewBox="0 0 19 19"><style>*{fill:#C18C1A;}</style><circle cx="9.5" cy="12.321" r="2.6"/><path d="M9.523 0c5.257 0 9.524 4.257 9.524 9.5S14.78 19 9.523 19C4.267 19 0 14.743 0 9.5S4.267 0 9.523 0Zm2.139 1.362L11 7.996H8l-.658-6.634-.512 1.853A6.837 6.837 0 0 0 2.667 9.5c0 3.773 3.074 6.833 6.856 6.833 3.783 0 6.857-3.06 6.857-6.833 0-2.838-1.739-5.273-4.212-6.306l-.506-1.832Z"/><circle cx="9.5" cy="21.5" r="2.5"/><circle cx="1.092" cy="20.092" r="1.092"/><circle cx="17.908" cy="20.092" r="1.092"/><path d="M27.672 19.036a9.5 9.5 0 1 0 8.105 15.57l-1.892-1.587A7.028 7.028 0 0 1 28.5 35.53a7.03 7.03 0 0 1-.613-14.033l-.215-2.461Z"/><path d="M36.727 33.25A9.499 9.499 0 0 0 28.5 19v9.5l8.227 4.75Z"/></svg>