<svg xmlns="http://www.w3.org/2000/svg" viewBox="0 0 19 19"><style>*{fill:#fff;}</style><path d="m7.346 4.516 3.039-3.039a5.051 5.051 0 0 1 7.138 0 5.051 5.051 0 0 1 0 7.138l-3.569 3.569a5.051 5.051 0 0 1-7.634-.577l1.933-1.933a2.381 2.381 0 0 0 3.815.624l3.569-3.569a2.381 2.381 0 0 0-3.366-3.366l-1.154 1.153c-1.159-.654-2.589-.439-3.771 0Z"/><path d="m11.634 14.484-3.039 3.039a5.05 5.05 0 0 1-7.137 0 5.05 5.05 0 0 1 0-7.138l3.568-3.569a5.051 5.051 0 0 1 7.634.577l-1.933 1.933a2.381 2.381 0 0 0-3.815-.624l-3.569 3.569a2.381 2.381 0 0 0 3.367 3.366l1.153-1.153c1.16.654 2.589.439 3.771 0Z"/></svg>