<svg xmlns="http://www.w3.org/2000/svg" viewBox="0 0 19 19"><style>*{fill:#004;}</style><rect width="19" height="1.5" y="17.5"/><polygon points="0.65 19.37 -0.65 18.63 6.84 5.39 11 9.27 18.4 -0.45 19.6 0.45 11.19 11.5 7.21 7.78 0.65 19.37"/><circle cx="17.28" cy="5.08" r=".75"/><circle cx="14.17" cy="7.85" r=".75"/><circle cx="17.28" cy="7.85" r=".75"/><circle cx="7.94" cy="10.62" r=".75"/><circle cx="14.17" cy="10.62" r=".75"/><circle cx="17.28" cy="10.62" r=".75"/><circle cx="4.83" cy="13.38" r=".75"/><circle cx="7.94" cy="13.38" r=".75"/><circle cx="11.06" cy="13.38" r=".75"/><circle cx="14.17" cy="13.38" r=".75"/><circle cx="17.28" cy="13.38" r=".75"/><circle cx="4.83" cy="16.15" r=".75"/><circle cx="7.94" cy="16.15" r=".75"/><circle cx="11.06" cy="16.15" r=".75"/><circle cx="14.17" cy="16.15" r=".75"/><circle cx="17.28" cy="16.15" r=".75"/></svg>