<svg xmlns="http://www.w3.org/2000/svg" viewBox="0 0 19 19"><style>*{fill:#004;}</style><path d="M4.071 10.5H1.315a1.001 1.001 0 0 1 0-2h2.756c.143-.78.45-1.502.884-2.131L3.006 4.42A.999.999 0 1 1 4.42 3.006l1.949 1.949A5.492 5.492 0 0 1 8.5 4.071V1.315a1.001 1.001 0 0 1 2 0v2.756c.78.143 1.502.45 2.131.884l1.949-1.949a.999.999 0 1 1 1.414 1.414l-1.949 1.949c.434.629.741 1.351.884 2.131h2.756a1.001 1.001 0 0 1 0 2h-2.756a5.492 5.492 0 0 1-.884 2.131l1.949 1.949a.999.999 0 1 1-1.414 1.414l-1.949-1.949a5.492 5.492 0 0 1-2.131.884v2.756a1.001 1.001 0 0 1-2 0v-2.756a5.492 5.492 0 0 1-2.131-.884L4.42 15.994a.999.999 0 1 1-1.414-1.414l1.949-1.949a5.492 5.492 0 0 1-.884-2.131Zm2.257-1 .104.567c.08.439.254.846.498 1.2l.328.475.475.328c.354.244.761.418 1.2.498l.567.104.567-.104c.439-.08.846-.254 1.2-.498l.475-.328.328-.475c.244-.354.418-.761.498-1.2l.104-.567-.104-.567a3.091 3.091 0 0 0-.498-1.2l-.328-.475-.475-.328a3.091 3.091 0 0 0-1.2-.498L9.5 6.328l-.567.104c-.439.08-.846.254-1.2.498l-.475.328-.328.475a3.091 3.091 0 0 0-.498 1.2l-.104.567Z"/></svg>